Coordinates
version=1
nRows=17
nColumns=40
inDegrees=yes

Units are S.I. units (second, meters, Newtons, ...)
Angles are in degrees.

endheader
time	pelvis_tilt	pelvis_list	pelvis_rotation	pelvis_tx	pelvis_ty	pelvis_tz	hip_flexion_r	hip_adduction_r	hip_rotation_r	knee_angle_r	knee_angle_r_beta	ankle_angle_r	subtalar_angle_r	mtp_angle_r	hip_flexion_l	hip_adduction_l	hip_rotation_l	knee_angle_l	knee_angle_l_beta	ankle_angle_l	subtalar_angle_l	mtp_angle_l	lumbar_extension	lumbar_bending	lumbar_rotation	arm_flex_r	arm_add_r	arm_rot_r	elbow_flex_r	pro_sup_r	wrist_flex_r	wrist_dev_r	arm_flex_l	arm_add_l	arm_rot_l	elbow_flex_l	pro_sup_l	wrist_flex_l	wrist_dev_l
     52.90000000	     -5.11190800	     -3.73861365	      0.82394728	      1.07971053	      0.93047199	      0.43518730	     32.52691250	     -7.84120816	     -7.39513627	     72.45550665	     72.45550665	      4.18304207	    -17.00978245	      2.13703431	     17.59276897	     -5.30312753	     -9.48678797	     21.96154155	     21.96154155	     11.64901796	    -10.64551634	     -1.93390563	    -10.02504630	      4.96945166	      1.27070746	     11.50566163	    -12.41616789	     -6.24771725	     72.63748710	     45.37163933	      0.00000000	      0.00000000	     14.95206619	    -12.41819339	      3.33484628	     36.19626576	     45.40859824	      0.00000000	      0.00000000
     52.91128571	     -4.95350655	     -3.96574476	      0.50604424	      1.07926085	      0.93129113	      0.43518270	     33.64579822	     -7.47311975	     -7.10195799	     71.40042201	     71.40042201	      3.97378745	    -16.85777620	      1.87171870	     16.54006324	     -5.56676239	     -9.66110413	     21.60072991	     21.60072991	     12.00231149	    -10.62921247	     -2.26240970	    -10.20962500	      5.31026108	      1.63846279	      9.64404341	    -12.49264791	     -6.94225511	     68.42182398	     45.52568677	      0.00000000	      0.00000000	     16.75686284	    -12.80478490	      3.21951467	     37.55754323	     45.48861203	      0.00000000	      0.00000000
     52.92257143	     -4.78351552	     -4.15486833	      0.21455353	      1.07879526	      0.93205982	      0.43512423	     34.64980469	     -7.15670043	     -6.84576948	     70.20733769	     70.20733769	      3.69219588	    -16.69451066	      1.67985751	     15.46694927	     -5.75570026	     -9.78879882	     21.19732947	     21.19732947	     12.31699614	    -10.71690614	     -2.37120534	    -10.43076443	      5.61661865	      1.78846260	      8.22607029	    -12.46474566	     -7.47652744	     63.45883734	     45.69779995	      0.00000000	      0.00000000	     18.29843235	    -13.27221563	      3.10172599	     39.30877171	     45.57017028	      0.00000000	      0.00000000
     52.93385714	     -4.58106873	     -4.34808043	     -0.11936469	      1.07840013	      0.93277771	      0.43513360	     35.48311859	     -6.78807645	     -6.60269192	     68.79497661	     68.79497661	      3.46952943	    -16.51761212	      1.83724862	     14.33159831	     -5.94541986	     -9.94820910	     20.75830893	     20.75830893	     12.69868469	    -10.76770391	     -2.36249978	    -10.75409735	      5.94249809	      2.45055724	      6.14039149	    -12.97499166	     -7.53485458	     60.27789587	     45.79614261	      0.00000000	      0.00000000	     20.15144865	    -13.41570441	      2.88278930	     40.86227410	     45.63695781	      0.00000000	      0.00000000
     52.94514286	     -4.48363452	     -4.47607997	     -0.39933375	      1.07795393	      0.93321521	      0.43516898	     36.30367590	     -6.52521884	     -6.44518972	     67.16327852	     67.16327852	      3.22038706	    -16.32283828	      1.84783504	     13.36277576	     -6.05814752	    -10.10931146	     20.38217734	     20.38217734	     13.02606668	    -10.83556823	     -2.42966542	    -10.82557623	      6.16398890	      1.99388620	      6.28963059	    -12.31611085	     -8.67441016	     52.73785874	     46.08367944	      0.00000000	      0.00000000	     21.15211656	    -14.27420171	      2.64191288	     42.85116983	     45.72640868	      0.00000000	      0.00000000
     52.95642857	     -4.34765737	     -4.58292515	     -0.69766910	      1.07756327	      0.93359036	      0.43526231	     36.91816648	     -6.24885138	     -6.31424339	     65.22975211	     65.22975211	      2.98084083	    -16.14140834	      1.87182352	     12.31810964	     -6.13391414	    -10.24881103	     19.95201958	     19.95201958	     13.40337056	    -10.88072020	     -2.42086524	    -11.03779483	      6.38053705	      1.89093079	      5.79283940	    -12.12411292	     -9.38555588	     47.15228507	     46.27215580	      0.00000000	      0.00000000	     22.14258064	    -14.90226582	      1.92324754	     45.24379165	     45.87999909	      0.00000000	      0.00000000
     52.96771429	     -4.26589985	     -4.66643234	     -1.01638088	      1.07719309	      0.93372998	      0.43545554	     37.43931396	     -5.99543583	     -6.26113565	     62.99421723	     62.99421723	      2.72277660	    -15.89979782	      1.79230120	     11.35480063	     -6.19870731	    -10.46997130	     19.56405326	     19.56405326	     13.74655495	    -10.92614419	     -2.44516572	    -11.18843966	      6.57940909	      1.98369132	      5.15093395	    -12.10039200	    -10.20170464	     41.87802673	     46.46027356	      0.00000000	      0.00000000	     23.26933045	    -15.34015389	      1.25490136	     47.37060770	     46.01909865	      0.00000000	      0.00000000
     52.97900000	     -4.21826788	     -4.71454487	     -1.32981570	      1.07687905	      0.93369158	      0.43572168	     37.81863290	     -5.77634849	     -6.29759461	     60.41337351	     60.41337351	      2.41819657	    -15.62548558	      1.48626717	     10.40465007	     -6.21536504	    -10.68508132	     19.13735055	     19.13735055	     14.09429617	    -10.95424950	     -2.50539959	    -11.30717065	      6.75263282	      2.04383404	      4.56952929	    -12.05298343	    -11.27939702	     36.82626661	     46.65992679	      0.00000000	      0.00000000	     24.21428225	    -15.80131003	      0.49828716	     49.74823774	     46.16456162	      0.00000000	      0.00000000
     52.99028571	     -4.19452065	     -4.73949165	     -1.63796551	      1.07666244	      0.93348290	      0.43607294	     38.02759785	     -5.58298778	     -6.44833191	     57.47698194	     57.47698194	      2.08063966	    -15.24062086	      0.92260993	      9.46571521	     -6.20953894	    -10.92834268	     18.69396436	     18.69396436	     14.42720174	    -10.93037034	     -2.62914779	    -11.40489779	      6.90728896	      2.11037432	      3.95484019	    -12.04626096	    -12.55609911	     32.16236466	     46.86902455	      0.00000000	      0.00000000	     25.04064021	    -16.23321139	     -0.32201575	     52.26946649	     46.31429508	      0.00000000	      0.00000000
     53.00157143	     -4.21512090	     -4.71099227	     -1.95108714	      1.07652551	      0.93306769	      0.43652026	     38.11862782	     -5.39661175	     -6.61705272	     54.25105114	     54.25105114	      1.98564694	    -14.60872739	      0.82713517	      8.52846748	     -6.13372086	    -11.18193407	     18.17717858	     18.17717858	     14.79567020	    -10.83026076	     -2.72138751	    -11.48411803	      7.01540515	      2.70524570	      2.26856252	    -12.34777500	    -13.03491388	     29.64976291	     46.97776320	      0.00000000	      0.00000000	     26.29075269	    -16.28344440	     -0.80477306	     54.26614461	     46.40450265	      0.00000000	      0.00000000
     53.01285714	     -4.26237733	     -4.75678749	     -2.20424794	      1.07651533	      0.93249928	      0.43703175	     38.00286292	     -5.19089370	     -7.09054039	     50.68852503	     50.68852503	      1.97461016	    -13.71752020	      1.02167859	      7.68216386	     -6.15553979	    -11.45873024	     17.77906454	     17.77906454	     15.13832576	    -10.80012494	     -2.80235671	    -11.46232523	      7.24940722	      2.84098877	      0.56649004	    -12.60590155	    -13.22997204	     28.10316460	     47.04031949	      0.00000000	      0.00000000	     27.40381099	    -16.62884354	     -1.15845272	     55.60754130	     46.46368023	      0.00000000	      0.00000000
     53.02414286	     -4.22510278	     -4.64744259	     -2.51972753	      1.07678795	      0.93192002	      0.43767102	     37.51898159	     -5.04897261	     -7.49924785	     46.63224605	     46.63224605	      1.15660237	    -12.89072251	     -1.47716112	      6.55554480	     -5.98380663	    -11.85514761	     17.07540023	     17.07540023	     15.30822933	    -10.59298202	     -3.33038274	    -11.55928636	      7.18797753	      2.38952300	      1.21378138	    -12.45197497	    -16.09596724	     21.59644032	     47.56129937	      0.00000000	      0.00000000	     26.99647139	    -17.29793235	     -3.00816543	     60.32128809	     46.73128313	      0.00000000	      0.00000000
     53.03542857	     -4.25120940	     -4.59236990	     -2.77364357	      1.07722057	      0.93105036	      0.43840157	     36.97316052	     -4.85201381	     -8.08228972	     42.55162751	     42.55162751	      1.29690733	    -11.31982655	     -1.32334222	      5.57964748	     -5.89566144	    -12.23007182	     16.54570150	     16.54570150	     15.68219275	    -10.28394057	     -3.54662063	    -11.55792607	      7.24603379	      2.98699577	     -0.73740421	    -12.73697723	    -16.53366096	     20.21242818	     47.65260178	      0.00000000	      0.00000000	     28.07110533	    -17.23746351	     -3.33849551	     62.31383379	     46.80349245	      0.00000000	      0.00000000
     53.04671429	     -4.35481419	     -4.59210412	     -2.97000750	      1.07783705	      0.92994340	      0.43929139	     36.28007964	     -4.51862229	     -8.72690395	     38.23625844	     38.23625844	      1.44153043	     -9.70050861	     -0.91396968	      4.69778648	     -5.87253475	    -12.50065641	     16.04975059	     16.04975059	     16.03679953	    -10.05207461	     -3.72378585	    -11.38595956	      7.40096001	      3.14876762	     -2.51016585	    -12.94626200	    -16.74082160	     19.21027666	     47.70588272	      0.00000000	      0.00000000	     28.92663765	    -17.49473224	     -3.65302646	     63.77490585	     46.85862454	      0.00000000	      0.00000000
     53.05800000	     -4.18084789	     -4.40317543	     -3.19941274	      1.07897966	      0.92887708	      0.44020123	     35.21288390	     -4.42991757	     -9.52855776	     34.06298131	     34.06298131	      1.70864983	     -7.27355812	     -0.69215299	      3.34149710	     -5.62082795	    -13.09894794	     15.29926233	     15.29926233	     16.40202071	     -9.39732488	     -4.15855429	    -11.60229807	      7.24851492	      3.72855832	     -4.39121172	    -13.11754965	    -17.18756736	     17.86769182	     47.81192205	      0.00000000	      0.00000000	     29.53327037	    -17.38970973	     -4.14205368	     66.90469966	     46.95707331	      0.00000000	      0.00000000
     53.06928571	     -4.28390167	     -4.36195348	     -3.32007084	      1.08021649	      0.92730094	      0.44134444	     34.23505961	     -4.02553694	    -10.20108310	     29.77759490	     29.77759490	      1.83491336	     -5.46759154	      0.02245978	      2.40800712	     -5.55839338	    -13.38098913	     14.75951931	     14.75951931	     16.77702901	     -9.06099399	     -4.43019904	    -11.31770871	      7.31690410	      3.73853049	     -6.05366740	    -13.20418127	    -17.42445044	     17.13465722	     47.86212655	      0.00000000	      0.00000000	     30.04898005	    -17.66330855	     -4.49885627	     68.59767205	     47.01760348	      0.00000000	      0.00000000
     53.08057143	     -4.08832301	     -4.23160291	     -3.41852865	      1.08194703	      0.92581158	      0.44257111	     32.93798194	     -3.78552826	    -11.08429113	     25.90362902	     25.90362902	      2.15108612	     -3.12463214	      0.91505490	      1.02691483	     -5.38070330	    -13.82187528	     14.05203800	     14.05203800	     17.17201894	     -8.40000439	     -4.82113805	    -11.43794271	      7.22481440	      3.99223159	     -7.94852567	    -13.31076776	    -17.77550302	     16.48850152	     47.92372479	      0.00000000	      0.00000000	     30.38088701	    -17.72225045	     -4.95875196	     71.29031354	     47.10435669	      0.00000000	      0.00000000
